<?xml version="1.0" encoding="UTF-8"?>
<svg xmlns="http://www.w3.org/2000/svg" viewBox="0 0 1400 2150" width="1400" height="2150" font-family="Segoe UI, Arial, sans-serif">
  <defs>
    <linearGradient id="headerGrad" x1="0%" y1="0%" x2="100%" y2="0%">
      <stop offset="0%" style="stop-color:#1a1a2e"/>
      <stop offset="100%" style="stop-color:#16213e"/>
    </linearGradient>
    <linearGradient id="coreGrad" x1="0%" y1="0%" x2="0%" y2="100%">
      <stop offset="0%" style="stop-color:#0f3460"/>
      <stop offset="100%" style="stop-color:#1a1a2e"/>
    </linearGradient>
    <linearGradient id="compressGrad" x1="0%" y1="0%" x2="100%" y2="100%">
      <stop offset="0%" style="stop-color:#e94560"/>
      <stop offset="100%" style="stop-color:#c23152"/>
    </linearGradient>
    <linearGradient id="searchGrad" x1="0%" y1="0%" x2="100%" y2="100%">
      <stop offset="0%" style="stop-color:#0ead69"/>
      <stop offset="100%" style="stop-color:#058c42"/>
    </linearGradient>
    <linearGradient id="llmGrad" x1="0%" y1="0%" x2="100%" y2="100%">
      <stop offset="0%" style="stop-color:#7b2ff7"/>
      <stop offset="100%" style="stop-color:#5c16c5"/>
    </linearGradient>
    <linearGradient id="agentGrad" x1="0%" y1="0%" x2="100%" y2="100%">
      <stop offset="0%" style="stop-color:#f77f00"/>
      <stop offset="100%" style="stop-color:#d65a00"/>
    </linearGradient>
    <linearGradient id="wsGrad" x1="0%" y1="0%" x2="100%" y2="100%">
      <stop offset="0%" style="stop-color:#00b4d8"/>
      <stop offset="100%" style="stop-color:#0077b6"/>
    </linearGradient>
    <filter id="shadow" x="-2%" y="-2%" width="104%" height="108%">
      <feDropShadow dx="0" dy="3" stdDeviation="4" flood-opacity="0.25"/>
    </filter>
    <filter id="shadowSmall" x="-2%" y="-2%" width="104%" height="108%">
      <feDropShadow dx="0" dy="2" stdDeviation="2" flood-opacity="0.2"/>
    </filter>
    <marker id="arrowWhite" markerWidth="10" markerHeight="7" refX="9" refY="3.5" orient="auto">
      <polygon points="0 0, 10 3.5, 0 7" fill="#ffffff" opacity="0.6"/>
    </marker>
    <marker id="arrowGray" markerWidth="10" markerHeight="7" refX="9" refY="3.5" orient="auto">
      <polygon points="0 0, 10 3.5, 0 7" fill="#888"/>
    </marker>
    <marker id="arrowOrange" markerWidth="10" markerHeight="7" refX="9" refY="3.5" orient="auto">
      <polygon points="0 0, 10 3.5, 0 7" fill="#f77f00"/>
    </marker>
    <marker id="arrowCyan" markerWidth="10" markerHeight="7" refX="9" refY="3.5" orient="auto">
      <polygon points="0 0, 10 3.5, 0 7" fill="#00b4d8"/>
    </marker>
  </defs>

  <!-- Background -->
  <rect width="1400" height="2150" fill="#0a0a1a" rx="12"/>

  <!-- Title -->
  <text x="700" y="50" text-anchor="middle" fill="#ffffff" font-size="32" font-weight="bold">NeuroPack</text>
  <text x="700" y="78" text-anchor="middle" fill="#8888aa" font-size="15">AI Memory Layer  --  Local, private memory for AI agents</text>
  <text x="700" y="98" text-anchor="middle" fill="#8888aa" font-size="15">3-level compression, shared learning &amp; workspace collaboration</text>

  <!-- ================================================================== -->
  <!-- INTERFACES ROW -->
  <!-- ================================================================== -->
  <text x="50" y="135" fill="#e94560" font-size="13" font-weight="bold" letter-spacing="2">INTERFACES</text>

  <!-- CLI Box -->
  <rect x="50" y="150" width="280" height="160" rx="10" fill="#141428" stroke="#333355" stroke-width="1" filter="url(#shadowSmall)"/>
  <rect x="50" y="150" width="280" height="32" rx="10" fill="#1e1e3a"/>
  <rect x="50" y="172" width="280" height="10" fill="#141428"/>
  <text x="70" y="172" fill="#e94560" font-size="14" font-weight="bold">CLI  (np)</text>
  <text x="70" y="200" fill="#aaaacc" font-size="11.5" font-family="Consolas, monospace">np store    np recall   np list</text>
  <text x="70" y="218" fill="#aaaacc" font-size="11.5" font-family="Consolas, monospace">np forget   np stats    np inspect</text>
  <text x="70" y="236" fill="#88ddff" font-size="11.5" font-family="Consolas, monospace">np init     np doctor</text>
  <text x="70" y="254" fill="#bb88ff" font-size="11.5" font-family="Consolas, monospace">np llm add/remove/list/test</text>
  <text x="70" y="272" fill="#ffaa44" font-size="11.5" font-family="Consolas, monospace">np agent create/log/learn/...</text>
  <text x="70" y="290" fill="#55ccdd" font-size="11.5" font-family="Consolas, monospace">np workspace create/join/...</text>

  <!-- REST API Box -->
  <rect x="370" y="150" width="280" height="160" rx="10" fill="#141428" stroke="#333355" stroke-width="1" filter="url(#shadowSmall)"/>
  <rect x="370" y="150" width="280" height="32" rx="10" fill="#1e1e3a"/>
  <rect x="370" y="172" width="280" height="10" fill="#141428"/>
  <text x="390" y="172" fill="#0ead69" font-size="14" font-weight="bold">REST API  (:7341)</text>
  <text x="390" y="200" fill="#aaaacc" font-size="11.5" font-family="Consolas, monospace">POST /v1/memories</text>
  <text x="390" y="218" fill="#aaaacc" font-size="11.5" font-family="Consolas, monospace">POST /v1/recall</text>
  <text x="390" y="236" fill="#aaaacc" font-size="11.5" font-family="Consolas, monospace">GET  /v1/stats</text>
  <text x="390" y="254" fill="#bb88ff" font-size="11.5" font-family="Consolas, monospace">GET  /v1/llms</text>
  <text x="390" y="272" fill="#ffaa44" font-size="11.5" font-family="Consolas, monospace">POST /v1/agents/{n}/log</text>
  <text x="390" y="290" fill="#ffaa44" font-size="11.5" font-family="Consolas, monospace">GET  /v1/agents/scoreboard</text>

  <!-- MCP Box -->
  <rect x="690" y="150" width="280" height="160" rx="10" fill="#141428" stroke="#333355" stroke-width="1" filter="url(#shadowSmall)"/>
  <rect x="690" y="150" width="280" height="32" rx="10" fill="#1e1e3a"/>
  <rect x="690" y="172" width="280" height="10" fill="#141428"/>
  <text x="710" y="172" fill="#7b9ff7" font-size="14" font-weight="bold">MCP Server  (Claude)</text>
  <text x="710" y="200" fill="#aaaacc" font-size="11.5" font-family="Consolas, monospace">remember()  recall()</text>
  <text x="710" y="218" fill="#aaaacc" font-size="11.5" font-family="Consolas, monospace">context_summary()</text>
  <text x="710" y="236" fill="#ffaa44" font-size="11.5" font-family="Consolas, monospace">agent_log()  agent_recall()</text>
  <text x="710" y="254" fill="#ffaa44" font-size="11.5" font-family="Consolas, monospace">agent_expertise()</text>
  <text x="710" y="272" fill="#55ccdd" font-size="11.5" font-family="Consolas, monospace">workspace_create/join/...</text>
  <text x="710" y="290" fill="#55ccdd" font-size="11.5" font-family="Consolas, monospace">workspace_handoff/catchup</text>

  <!-- Chrome Extension Box -->
  <rect x="1010" y="150" width="340" height="160" rx="10" fill="#141428" stroke="#333355" stroke-width="1" filter="url(#shadowSmall)"/>
  <rect x="1010" y="150" width="340" height="32" rx="10" fill="#1e1e3a"/>
  <rect x="1010" y="172" width="340" height="10" fill="#141428"/>
  <text x="1030" y="172" fill="#ddaa33" font-size="14" font-weight="bold">Chrome Extension + Desktop</text>
  <text x="1030" y="200" fill="#aaaacc" font-size="12">Capture web pages, highlights,</text>
  <text x="1030" y="220" fill="#aaaacc" font-size="12">and selections. Send to API.</text>
  <text x="1030" y="250" fill="#aaaacc" font-size="12">Desktop GUI via PyWebView</text>
  <text x="1030" y="270" fill="#aaaacc" font-size="12">with web dashboard.</text>

  <!-- Arrows from interfaces down -->
  <line x1="190" y1="310" x2="190" y2="350" stroke="#555577" stroke-width="1.5" marker-end="url(#arrowGray)"/>
  <line x1="510" y1="310" x2="510" y2="350" stroke="#555577" stroke-width="1.5" marker-end="url(#arrowGray)"/>
  <line x1="830" y1="310" x2="830" y2="350" stroke="#555577" stroke-width="1.5" marker-end="url(#arrowGray)"/>
  <line x1="1180" y1="310" x2="1180" y2="340" stroke="#555577" stroke-width="1.5" stroke-dasharray="6,4"/>
  <line x1="1180" y1="340" x2="700" y2="350" stroke="#555577" stroke-width="1.5" marker-end="url(#arrowGray)" stroke-dasharray="6,4"/>

  <!-- ================================================================== -->
  <!-- CORE ENGINE -->
  <!-- ================================================================== -->
  <rect x="50" y="355" width="1300" height="80" rx="12" fill="url(#coreGrad)" stroke="#2a4a7a" stroke-width="1.5" filter="url(#shadow)"/>
  <text x="700" y="385" text-anchor="middle" fill="#ffffff" font-size="18" font-weight="bold">MemoryStore  --  Core Engine</text>
  <text x="700" y="410" text-anchor="middle" fill="#8899bb" font-size="13">Single facade:  Privacy  ->  PII Detection  ->  Compression  ->  Embedding  ->  Dedup  ->  Trust  ->  Storage  ->  Knowledge Graph</text>

  <!-- Arrows from core down to subsystems -->
  <line x1="230" y1="435" x2="230" y2="480" stroke="#e94560" stroke-width="2" marker-end="url(#arrowWhite)"/>
  <line x1="600" y1="435" x2="600" y2="480" stroke="#0ead69" stroke-width="2" marker-end="url(#arrowWhite)"/>
  <line x1="975" y1="435" x2="975" y2="480" stroke="#7b2ff7" stroke-width="2" marker-end="url(#arrowWhite)"/>

  <!-- ================================================================== -->
  <!-- THREE SUBSYSTEM BOXES -->
  <!-- ================================================================== -->

  <!-- COMPRESSION BOX -->
  <rect x="50" y="485" width="340" height="280" rx="12" fill="#1a0a15" stroke="#e94560" stroke-width="1.5" filter="url(#shadow)"/>
  <rect x="50" y="485" width="340" height="36" rx="12" fill="url(#compressGrad)"/>
  <rect x="50" y="511" width="340" height="10" fill="#1a0a15"/>
  <text x="220" y="510" text-anchor="middle" fill="#ffffff" font-size="15" font-weight="bold">3-Level Compression</text>

  <text x="75" y="545" fill="#e94560" font-size="13" font-weight="bold">Input Text</text>
  <text x="180" y="545" fill="#777799" font-size="12">(e.g. 5000 tokens)</text>

  <!-- L3 -->
  <rect x="75" y="560" width="290" height="48" rx="6" fill="#221122" stroke="#e94560" stroke-width="0.8"/>
  <text x="90" y="578" fill="#ff6680" font-size="12" font-weight="bold">L3 Abstract</text>
  <text x="200" y="578" fill="#888" font-size="10">~20 tokens</text>
  <text x="90" y="596" fill="#aaaacc" font-size="10.5" font-family="Consolas, monospace">"OAuth2 PKCE chosen for SPA auth"</text>

  <!-- L2 -->
  <rect x="75" y="616" width="290" height="62" rx="6" fill="#221122" stroke="#e94560" stroke-width="0.8"/>
  <text x="90" y="634" fill="#ff6680" font-size="12" font-weight="bold">L2 Key Facts</text>
  <text x="200" y="634" fill="#888" font-size="10">~50 tokens, 3-5 facts</text>
  <text x="90" y="652" fill="#aaaacc" font-size="10.5" font-family="Consolas, monospace">["PKCE prevents code interception",</text>
  <text x="90" y="667" fill="#aaaacc" font-size="10.5" font-family="Consolas, monospace"> "Works in browser without secret"]</text>

  <!-- L1 -->
  <rect x="75" y="686" width="290" height="42" rx="6" fill="#221122" stroke="#e94560" stroke-width="0.8"/>
  <text x="90" y="704" fill="#ff6680" font-size="12" font-weight="bold">L1 Full Text</text>
  <text x="200" y="704" fill="#888" font-size="10">zstd compressed, lossless</text>
  <text x="90" y="720" fill="#aaaacc" font-size="10.5" font-family="Consolas, monospace">[binary blob -- fully recoverable]</text>

  <text x="220" y="755" text-anchor="middle" fill="#555" font-size="11">Token savings: ~90% (L3) / ~80% (L2)</text>

  <!-- SEARCH BOX -->
  <rect x="430" y="485" width="340" height="280" rx="12" fill="#0a1a10" stroke="#0ead69" stroke-width="1.5" filter="url(#shadow)"/>
  <rect x="430" y="485" width="340" height="36" rx="12" fill="url(#searchGrad)"/>
  <rect x="430" y="511" width="340" height="10" fill="#0a1a10"/>
  <text x="600" y="510" text-anchor="middle" fill="#ffffff" font-size="15" font-weight="bold">Hybrid Search</text>

  <text x="455" y="545" fill="#0ead69" font-size="13" font-weight="bold">Query</text>
  <text x="505" y="545" fill="#777799" font-size="11">"How did we handle authentication?"</text>

  <!-- Vector Search -->
  <rect x="455" y="565" width="290" height="55" rx="6" fill="#112218" stroke="#0ead69" stroke-width="0.8"/>
  <text x="470" y="585" fill="#44dd88" font-size="12" font-weight="bold">Vector Search</text>
  <text x="470" y="603" fill="#aaaacc" font-size="11">TF-IDF embeddings (256d feature hash)</text>
  <rect x="690" y="570" width="45" height="20" rx="4" fill="#0ead69"/>
  <text x="712" y="585" text-anchor="middle" fill="#fff" font-size="11" font-weight="bold">0.6</text>

  <!-- FTS Search -->
  <rect x="455" y="630" width="290" height="55" rx="6" fill="#112218" stroke="#0ead69" stroke-width="0.8"/>
  <text x="470" y="650" fill="#44dd88" font-size="12" font-weight="bold">Full-Text Search</text>
  <text x="470" y="668" fill="#aaaacc" font-size="11">SQLite FTS5, BM25 ranking</text>
  <rect x="690" y="635" width="45" height="20" rx="4" fill="#0ead69"/>
  <text x="712" y="650" text-anchor="middle" fill="#fff" font-size="11" font-weight="bold">0.4</text>

  <!-- Fusion -->
  <line x1="600" y1="688" x2="600" y2="710" stroke="#0ead69" stroke-width="1.5"/>
  <rect x="475" y="710" width="250" height="36" rx="6" fill="#0ead69"/>
  <text x="600" y="733" text-anchor="middle" fill="#ffffff" font-size="12" font-weight="bold">Reciprocal Rank Fusion (k=60)</text>

  <!-- LLM REGISTRY BOX -->
  <rect x="810" y="485" width="340" height="280" rx="12" fill="#120a22" stroke="#7b2ff7" stroke-width="1.5" filter="url(#shadow)"/>
  <rect x="810" y="485" width="340" height="36" rx="12" fill="url(#llmGrad)"/>
  <rect x="810" y="511" width="340" height="10" fill="#120a22"/>
  <text x="980" y="510" text-anchor="middle" fill="#ffffff" font-size="15" font-weight="bold">LLM Registry</text>
  <text x="835" y="540" fill="#bb99ee" font-size="11">Named multi-provider configs in SQLite metadata</text>

  <!-- Provider table -->
  <rect x="835" y="555" width="290" height="28" rx="4" fill="#2a1a44"/>
  <text x="855" y="574" fill="#bb88ff" font-size="11" font-weight="bold">Name</text>
  <text x="955" y="574" fill="#bb88ff" font-size="11" font-weight="bold">Provider</text>
  <text x="1065" y="574" fill="#bb88ff" font-size="11" font-weight="bold">Model</text>

  <rect x="835" y="585" width="290" height="24" rx="0" fill="#1a1030"/>
  <text x="855" y="602" fill="#aaaacc" font-size="10.5" font-family="Consolas, monospace">local-llama</text>
  <text x="955" y="602" fill="#aaaacc" font-size="10.5" font-family="Consolas, monospace">openai-compat</text>
  <text x="1065" y="602" fill="#aaaacc" font-size="10.5" font-family="Consolas, monospace">llama3.2</text>

  <rect x="835" y="610" width="290" height="24" rx="0" fill="#150d28"/>
  <text x="855" y="627" fill="#aaaacc" font-size="10.5" font-family="Consolas, monospace">gpt4</text>
  <text x="955" y="627" fill="#aaaacc" font-size="10.5" font-family="Consolas, monospace">openai</text>
  <text x="1065" y="627" fill="#aaaacc" font-size="10.5" font-family="Consolas, monospace">gpt-4o-mini</text>

  <rect x="835" y="635" width="290" height="24" rx="0" fill="#1a1030"/>
  <text x="855" y="652" fill="#aaaacc" font-size="10.5" font-family="Consolas, monospace">claude</text>
  <text x="955" y="652" fill="#aaaacc" font-size="10.5" font-family="Consolas, monospace">anthropic</text>
  <text x="1065" y="652" fill="#aaaacc" font-size="10.5" font-family="Consolas, monospace">haiku</text>

  <!-- Supports list -->
  <text x="835" y="690" fill="#8866bb" font-size="11" font-weight="bold">Supports any OpenAI-compatible endpoint:</text>
  <text x="835" y="708" fill="#777799" font-size="11">Ollama, vLLM, Together, Groq, Azure, LM Studio</text>
  <text x="835" y="730" fill="#777799" font-size="11">Default LLM powers smarter L3/L2 compression</text>
  <text x="835" y="748" fill="#777799" font-size="11">Legacy env var config auto-migrates on first run</text>

  <!-- Arrow from LLM to compression -->
  <path d="M 830 630 Q 780 630 780 610 Q 780 590 430 590" stroke="#7b2ff7" stroke-width="1.5" fill="none" stroke-dasharray="6,3" marker-end="url(#arrowGray)" opacity="0.5"/>
  <text x="620" y="583" fill="#7b2ff7" font-size="9" opacity="0.7">powers compression</text>

  <!-- ================================================================== -->
  <!-- STORAGE LAYER -->
  <!-- ================================================================== -->
  <text x="50" y="820" fill="#3388cc" font-size="13" font-weight="bold" letter-spacing="2">STORAGE</text>

  <rect x="50" y="835" width="1300" height="110" rx="12" fill="#0a1525" stroke="#2a5580" stroke-width="1" filter="url(#shadow)"/>

  <!-- memories table -->
  <rect x="75" y="850" width="250" height="80" rx="8" fill="#112240" stroke="#3388cc" stroke-width="0.8"/>
  <text x="90" y="872" fill="#55aaee" font-size="12" font-weight="bold">memories</text>
  <text x="90" y="890" fill="#8899bb" font-size="10.5" font-family="Consolas, monospace">id, content, l3, l2, l1</text>
  <text x="90" y="905" fill="#8899bb" font-size="10.5" font-family="Consolas, monospace">embedding, tags, namespace</text>
  <text x="90" y="920" fill="#8899bb" font-size="10.5" font-family="Consolas, monospace">priority, tokens, timestamps</text>

  <!-- FTS table -->
  <rect x="350" y="850" width="200" height="80" rx="8" fill="#112240" stroke="#3388cc" stroke-width="0.8"/>
  <text x="365" y="872" fill="#55aaee" font-size="12" font-weight="bold">memories_fts</text>
  <text x="365" y="890" fill="#8899bb" font-size="10.5">FTS5 virtual table</text>
  <text x="365" y="905" fill="#8899bb" font-size="10.5">Auto-synced via triggers</text>
  <text x="365" y="920" fill="#8899bb" font-size="10.5">Porter + Unicode tokenizer</text>

  <!-- entities table -->
  <rect x="575" y="850" width="200" height="80" rx="8" fill="#112240" stroke="#3388cc" stroke-width="0.8"/>
  <text x="590" y="872" fill="#55aaee" font-size="12" font-weight="bold">entities</text>
  <text x="590" y="890" fill="#8899bb" font-size="10.5">Knowledge graph nodes</text>
  <text x="590" y="905" fill="#8899bb" font-size="10.5">name, type, namespace</text>
  <text x="590" y="920" fill="#8899bb" font-size="10.5">mention_count, timestamps</text>

  <!-- workspace tables -->
  <rect x="800" y="850" width="210" height="80" rx="8" fill="#112240" stroke="#00b4d8" stroke-width="0.8"/>
  <text x="815" y="872" fill="#55ccdd" font-size="12" font-weight="bold">workspace_*</text>
  <text x="815" y="890" fill="#8899bb" font-size="10.5">workspaces, members</text>
  <text x="815" y="905" fill="#8899bb" font-size="10.5">tasks, handoffs</text>
  <text x="815" y="920" fill="#8899bb" font-size="10.5">decisions (5 tables)</text>

  <!-- metadata table -->
  <rect x="1035" y="850" width="290" height="80" rx="8" fill="#112240" stroke="#3388cc" stroke-width="0.8"/>
  <text x="1050" y="872" fill="#55aaee" font-size="12" font-weight="bold">metadata</text>
  <text x="1050" y="890" fill="#8899bb" font-size="10.5">Key/value store</text>
  <text x="1050" y="905" fill="#bb88ff" font-size="10.5">LLM registry, agent configs</text>
  <text x="1050" y="920" fill="#8899bb" font-size="10.5">embedder state, trust scores</text>

  <!-- ================================================================== -->
  <!-- MULTI-AGENT LEARNING -->
  <!-- ================================================================== -->
  <text x="50" y="995" fill="#f77f00" font-size="13" font-weight="bold" letter-spacing="2">MULTI-AGENT LEARNING</text>
  <text x="340" y="995" fill="#886633" font-size="12">Isolated agent namespaces with shared learning and auto-absorb from workspaces</text>

  <!-- Agent boxes -->
  <rect x="50" y="1015" width="1300" height="360" rx="12" fill="#1a1208" stroke="#f77f00" stroke-width="1" filter="url(#shadow)" opacity="0.3"/>

  <!-- researcher -->
  <rect x="100" y="1035" width="240" height="130" rx="10" fill="#1a1510" stroke="#f77f00" stroke-width="1.2" filter="url(#shadowSmall)"/>
  <rect x="100" y="1035" width="240" height="28" rx="10" fill="url(#agentGrad)"/>
  <rect x="100" y="1055" width="240" height="8" fill="#1a1510"/>
  <text x="220" y="1056" text-anchor="middle" fill="#ffffff" font-size="13" font-weight="bold">researcher</text>
  <text x="120" y="1085" fill="#888" font-size="11">namespace: researcher</text>
  <text x="120" y="1108" fill="#66ff88" font-size="11" font-family="Consolas, monospace">"Found PKCE approach"</text>
  <text x="120" y="1123" fill="#66ff88" font-size="10">auto-tag: [win]</text>
  <text x="120" y="1145" fill="#ff6666" font-size="11" font-family="Consolas, monospace">"Wrong API version used"</text>
  <text x="120" y="1160" fill="#ff6666" font-size="10">auto-tag: [mistake]</text>

  <!-- coder -->
  <rect x="400" y="1035" width="240" height="130" rx="10" fill="#1a1510" stroke="#f77f00" stroke-width="1.2" filter="url(#shadowSmall)"/>
  <rect x="400" y="1035" width="240" height="28" rx="10" fill="url(#agentGrad)"/>
  <rect x="400" y="1055" width="240" height="8" fill="#1a1510"/>
  <text x="520" y="1056" text-anchor="middle" fill="#ffffff" font-size="13" font-weight="bold">coder</text>
  <text x="420" y="1085" fill="#888" font-size="11">namespace: coder</text>
  <text x="420" y="1108" fill="#66ff88" font-size="11" font-family="Consolas, monospace">"Successful refactor"</text>
  <text x="420" y="1123" fill="#66ff88" font-size="10">auto-tag: [win]</text>
  <text x="420" y="1145" fill="#aaaacc" font-size="11" font-family="Consolas, monospace">"Redis needs config"</text>
  <text x="420" y="1160" fill="#aaaacc" font-size="10">auto-tag: [observation]</text>

  <!-- reviewer -->
  <rect x="700" y="1035" width="240" height="130" rx="10" fill="#1a1510" stroke="#f77f00" stroke-width="1.2" filter="url(#shadowSmall)"/>
  <rect x="700" y="1035" width="240" height="28" rx="10" fill="url(#agentGrad)"/>
  <rect x="700" y="1055" width="240" height="8" fill="#1a1510"/>
  <text x="820" y="1056" text-anchor="middle" fill="#ffffff" font-size="13" font-weight="bold">reviewer</text>
  <text x="720" y="1085" fill="#888" font-size="11">namespace: reviewer</text>
  <text x="720" y="1108" fill="#ff6666" font-size="11" font-family="Consolas, monospace">"Missed SQL injection"</text>
  <text x="720" y="1123" fill="#ff6666" font-size="10">auto-tag: [mistake]</text>
  <text x="720" y="1145" fill="#aaaacc" font-size="11" font-family="Consolas, monospace">"Tests look thorough"</text>
  <text x="720" y="1160" fill="#aaaacc" font-size="10">auto-tag: [observation]</text>

  <!-- Share arrows -->
  <line x1="220" y1="1165" x2="220" y2="1205" stroke="#f77f00" stroke-width="1.5" marker-end="url(#arrowOrange)"/>
  <text x="230" y="1193" fill="#f77f00" font-size="9">share</text>
  <line x1="520" y1="1165" x2="520" y2="1205" stroke="#f77f00" stroke-width="1.5" marker-end="url(#arrowOrange)"/>
  <text x="530" y="1193" fill="#f77f00" font-size="9">share</text>
  <line x1="820" y1="1165" x2="820" y2="1205" stroke="#f77f00" stroke-width="1.5" marker-end="url(#arrowOrange)"/>
  <text x="830" y="1193" fill="#f77f00" font-size="9">share</text>

  <!-- Shared namespace -->
  <rect x="150" y="1210" width="740" height="70" rx="10" fill="#2a1a00" stroke="#f77f00" stroke-width="2" filter="url(#shadow)"/>
  <text x="520" y="1235" text-anchor="middle" fill="#f77f00" font-size="15" font-weight="bold">shared  (namespace)</text>
  <text x="520" y="1258" text-anchor="middle" fill="#ccaa66" font-size="12">Collective memory pool -- all agents' shared learnings accumulate here</text>

  <!-- Learn arrow -->
  <line x1="520" y1="1280" x2="520" y2="1320" stroke="#f77f00" stroke-width="1.5" marker-end="url(#arrowOrange)"/>
  <text x="535" y="1305" fill="#f77f00" font-size="10">agent learn</text>

  <!-- Scoreboard -->
  <rect x="1000" y="1035" width="320" height="245" rx="10" fill="#1a1510" stroke="#f77f00" stroke-width="1.2" filter="url(#shadowSmall)"/>
  <rect x="1000" y="1035" width="320" height="28" rx="10" fill="url(#agentGrad)"/>
  <rect x="1000" y="1055" width="320" height="8" fill="#1a1510"/>
  <text x="1160" y="1056" text-anchor="middle" fill="#ffffff" font-size="13" font-weight="bold">Scoreboard</text>

  <!-- Table header -->
  <rect x="1020" y="1080" width="280" height="24" rx="4" fill="#2a1a00"/>
  <text x="1040" y="1097" fill="#f77f00" font-size="11" font-weight="bold">Agent</text>
  <text x="1140" y="1097" fill="#f77f00" font-size="11" font-weight="bold">W</text>
  <text x="1175" y="1097" fill="#f77f00" font-size="11" font-weight="bold">L</text>
  <text x="1210" y="1097" fill="#f77f00" font-size="11" font-weight="bold">Ratio</text>
  <text x="1265" y="1097" fill="#f77f00" font-size="11" font-weight="bold">Total</text>

  <text x="1040" y="1125" fill="#66ff88" font-size="12" font-family="Consolas, monospace">coder</text>
  <text x="1140" y="1125" fill="#66ff88" font-size="12" font-family="Consolas, monospace">1</text>
  <text x="1175" y="1125" fill="#66ff88" font-size="12" font-family="Consolas, monospace">0</text>
  <text x="1210" y="1125" fill="#66ff88" font-size="12" font-family="Consolas, monospace">1.00</text>
  <text x="1265" y="1125" fill="#888" font-size="12" font-family="Consolas, monospace">2</text>

  <text x="1040" y="1148" fill="#ffaa44" font-size="12" font-family="Consolas, monospace">researcher</text>
  <text x="1140" y="1148" fill="#ffaa44" font-size="12" font-family="Consolas, monospace">1</text>
  <text x="1175" y="1148" fill="#ffaa44" font-size="12" font-family="Consolas, monospace">1</text>
  <text x="1210" y="1148" fill="#ffaa44" font-size="12" font-family="Consolas, monospace">0.50</text>
  <text x="1265" y="1148" fill="#888" font-size="12" font-family="Consolas, monospace">2</text>

  <text x="1040" y="1171" fill="#ff6666" font-size="12" font-family="Consolas, monospace">reviewer</text>
  <text x="1140" y="1171" fill="#ff6666" font-size="12" font-family="Consolas, monospace">0</text>
  <text x="1175" y="1171" fill="#ff6666" font-size="12" font-family="Consolas, monospace">1</text>
  <text x="1210" y="1171" fill="#ff6666" font-size="12" font-family="Consolas, monospace">0.00</text>
  <text x="1265" y="1171" fill="#888" font-size="12" font-family="Consolas, monospace">2</text>

  <!-- Auto-tag legend -->
  <text x="1020" y="1205" fill="#886633" font-size="11" font-weight="bold">Auto-tagging keywords:</text>
  <rect x="1020" y="1215" width="55" height="18" rx="4" fill="#1a3a1a"/>
  <text x="1047" y="1228" text-anchor="middle" fill="#66ff88" font-size="10">win</text>
  <text x="1085" y="1228" fill="#667766" font-size="9.5">success, correct, good</text>

  <rect x="1020" y="1238" width="55" height="18" rx="4" fill="#3a1a1a"/>
  <text x="1047" y="1251" text-anchor="middle" fill="#ff6666" font-size="10">mistake</text>
  <text x="1085" y="1251" fill="#776666" font-size="9.5">error, failed, wrong</text>

  <rect x="1020" y="1261" width="55" height="18" rx="4" fill="#1a1a2a"/>
  <text x="1047" y="1274" text-anchor="middle" fill="#aaaacc" font-size="10">obs</text>
  <text x="1085" y="1274" fill="#666677" font-size="9.5">everything else</text>

  <!-- ================================================================== -->
  <!-- WORKSPACE COLLABORATION -->
  <!-- ================================================================== -->
  <text x="50" y="1420" fill="#00b4d8" font-size="13" font-weight="bold" letter-spacing="2">WORKSPACE COLLABORATION</text>
  <text x="370" y="1420" fill="#006688" font-size="12">Multi-agent coordination: task board, structured handoffs, decision log, context injection</text>

  <rect x="50" y="1440" width="1300" height="310" rx="12" fill="#081520" stroke="#00b4d8" stroke-width="1" filter="url(#shadow)" opacity="0.3"/>

  <!-- Task Board -->
  <rect x="100" y="1460" width="350" height="130" rx="10" fill="#0a1a28" stroke="#00b4d8" stroke-width="1.2" filter="url(#shadowSmall)"/>
  <rect x="100" y="1460" width="350" height="28" rx="10" fill="url(#wsGrad)"/>
  <rect x="100" y="1480" width="350" height="8" fill="#0a1a28"/>
  <text x="275" y="1481" text-anchor="middle" fill="#ffffff" font-size="13" font-weight="bold">Task Board</text>
  <text x="120" y="1510" fill="#55ccdd" font-size="11">Atomic claiming prevents duplicate work</text>
  <text x="120" y="1530" fill="#66ff88" font-size="11" font-family="Consolas, monospace">open -> claimed -> done</text>
  <text x="120" y="1548" fill="#aaaacc" font-size="10.5">Block/unblock dependencies</text>
  <text x="120" y="1566" fill="#aaaacc" font-size="10.5">Auto-unblock when blockers complete</text>
  <text x="120" y="1584" fill="#888" font-size="10">create_task / claim_task / complete_task</text>

  <!-- Handoffs -->
  <rect x="500" y="1460" width="350" height="130" rx="10" fill="#0a1a28" stroke="#00b4d8" stroke-width="1.2" filter="url(#shadowSmall)"/>
  <rect x="500" y="1460" width="350" height="28" rx="10" fill="url(#wsGrad)"/>
  <rect x="500" y="1480" width="350" height="8" fill="#0a1a28"/>
  <text x="675" y="1481" text-anchor="middle" fill="#ffffff" font-size="13" font-weight="bold">Structured Handoffs</text>
  <text x="520" y="1510" fill="#55ccdd" font-size="11">Context transfer between agents</text>
  <text x="520" y="1530" fill="#aaaacc" font-size="10.5" font-family="Consolas, monospace">findings: ["PKCE prevents..."]</text>
  <text x="520" y="1548" fill="#aaaacc" font-size="10.5" font-family="Consolas, monospace">decisions: ["Use OAuth2"]</text>
  <text x="520" y="1566" fill="#aaaacc" font-size="10.5" font-family="Consolas, monospace">open_questions: ["Which IdP?"]</text>
  <text x="520" y="1584" fill="#ffaa44" font-size="10">Auto-absorbs to agent namespace</text>

  <!-- Decision Log + Catchup -->
  <rect x="900" y="1460" width="420" height="130" rx="10" fill="#0a1a28" stroke="#00b4d8" stroke-width="1.2" filter="url(#shadowSmall)"/>
  <rect x="900" y="1460" width="420" height="28" rx="10" fill="url(#wsGrad)"/>
  <rect x="900" y="1480" width="420" height="8" fill="#0a1a28"/>
  <text x="1110" y="1481" text-anchor="middle" fill="#ffffff" font-size="13" font-weight="bold">Decision Log + Context Injection</text>
  <text x="920" y="1510" fill="#55ccdd" font-size="11">Shared decisions with rationale</text>
  <text x="920" y="1530" fill="#aaaacc" font-size="10.5">Title, rationale, alternatives, decided_by</text>
  <text x="920" y="1553" fill="#55ccdd" font-size="11">Progressive catchup for late joiners:</text>
  <text x="920" y="1571" fill="#66ff88" font-size="10.5" font-family="Consolas, monospace">L3: goal + tasks + decisions  (always)</text>
  <text x="920" y="1586" fill="#ffaa44" font-size="10.5" font-family="Consolas, monospace">L2: handoffs + rationales  (if budget)</text>

  <!-- Auto-absorb flow -->
  <rect x="100" y="1610" width="1220" height="55" rx="10" fill="#0a1520" stroke="#00b4d8" stroke-width="1.5" filter="url(#shadow)"/>
  <text x="710" y="1635" text-anchor="middle" fill="#00b4d8" font-size="14" font-weight="bold">Auto-Absorb:  Workspace Learnings -> Agent Namespace</text>
  <text x="710" y="1655" text-anchor="middle" fill="#7799aa" font-size="11.5">Handoffs, task completions, and decisions automatically flow into the agent's personal memory (tagged workspace_learning)</text>

  <!-- Arrow from workspace back up to agents -->
  <line x1="1340" y1="1610" x2="1340" y2="1360" stroke="#00b4d8" stroke-width="1.5" stroke-dasharray="6,3" marker-end="url(#arrowCyan)"/>
  <text x="1345" y="1490" fill="#00b4d8" font-size="9" transform="rotate(-90 1345 1490)">absorb</text>

  <!-- ================================================================== -->
  <!-- ONBOARDING -->
  <!-- ================================================================== -->
  <text x="50" y="1810" fill="#88ddff" font-size="13" font-weight="bold" letter-spacing="2">ONBOARDING</text>

  <!-- np init -->
  <rect x="50" y="1825" width="420" height="145" rx="10" fill="#0a1520" stroke="#88ddff" stroke-width="1" filter="url(#shadowSmall)"/>
  <rect x="50" y="1825" width="420" height="28" rx="10" fill="#1a3050"/>
  <text x="70" y="1845" fill="#88ddff" font-size="14" font-weight="bold">np init  --  Setup Wizard</text>
  <text x="70" y="1875" fill="#aaaacc" font-size="11.5" font-family="Consolas, monospace">[1/4] Database ............ create ~/.neuropack/</text>
  <text x="70" y="1893" fill="#aaaacc" font-size="11.5" font-family="Consolas, monospace">[2/4] LLM Config .......... provider, key, model</text>
  <text x="70" y="1911" fill="#aaaacc" font-size="11.5" font-family="Consolas, monospace">[3/4] API Security ........ auth token</text>
  <text x="70" y="1929" fill="#aaaacc" font-size="11.5" font-family="Consolas, monospace">[4/4] Example Memories .... 3 starter memories</text>
  <text x="70" y="1957" fill="#667788" font-size="10.5">Writes config.env, tests LLM connection, shows next steps</text>

  <!-- np doctor -->
  <rect x="510" y="1825" width="420" height="145" rx="10" fill="#0a1520" stroke="#88ddff" stroke-width="1" filter="url(#shadowSmall)"/>
  <rect x="510" y="1825" width="420" height="28" rx="10" fill="#1a3050"/>
  <text x="530" y="1845" fill="#88ddff" font-size="14" font-weight="bold">np doctor  --  Health Check</text>
  <text x="530" y="1875" fill="#66ff88" font-size="11.5" font-family="Consolas, monospace">Database .............. OK  (45 KB)</text>
  <text x="530" y="1893" fill="#66ff88" font-size="11.5" font-family="Consolas, monospace">Schema ................ OK  (v6)</text>
  <text x="530" y="1911" fill="#66ff88" font-size="11.5" font-family="Consolas, monospace">Memory count .......... 42 memories</text>
  <text x="530" y="1929" fill="#66ff88" font-size="11.5" font-family="Consolas, monospace">LLM (local-llama) .... OK  (0.2s)</text>
  <text x="530" y="1947" fill="#ff6666" font-size="11.5" font-family="Consolas, monospace">LLM (gpt4-backup) .... FAIL (401)</text>
  <text x="530" y="1962" fill="#667788" font-size="10.5">Tests all LLM connections, reports issues</text>

  <!-- Data flow summary -->
  <rect x="970" y="1825" width="380" height="145" rx="10" fill="#0a1520" stroke="#556688" stroke-width="1" filter="url(#shadowSmall)"/>
  <rect x="970" y="1825" width="380" height="28" rx="10" fill="#1a2540"/>
  <text x="990" y="1845" fill="#8899bb" font-size="14" font-weight="bold">Data Flow Summary</text>

  <text x="990" y="1878" fill="#e94560" font-size="11" font-weight="bold">Store:</text>
  <text x="1040" y="1878" fill="#aaaacc" font-size="10.5">text -> PII -> privacy -> compress -> embed -> dedup -> DB</text>

  <text x="990" y="1900" fill="#0ead69" font-size="11" font-weight="bold">Recall:</text>
  <text x="1040" y="1900" fill="#aaaacc" font-size="10.5">query -> embed -> vector + FTS5 -> rank fusion</text>

  <text x="990" y="1922" fill="#f77f00" font-size="11" font-weight="bold">Agent:</text>
  <text x="1040" y="1922" fill="#aaaacc" font-size="10.5">log -> auto-tag -> namespace -> share -> learn</text>

  <text x="990" y="1944" fill="#00b4d8" font-size="11" font-weight="bold">Workspace:</text>
  <text x="1070" y="1944" fill="#aaaacc" font-size="10.5">task -> claim -> handoff -> absorb -> catchup</text>

  <!-- ================================================================== -->
  <!-- FOOTER -->
  <!-- ================================================================== -->
  <rect x="50" y="2000" width="1300" height="130" rx="12" fill="#0f0f20" stroke="#222244" stroke-width="1"/>

  <text x="120" y="2040" fill="#e94560" font-size="26" font-weight="bold">396</text>
  <text x="120" y="2062" fill="#666688" font-size="11">tests pass</text>

  <text x="280" y="2040" fill="#0ead69" font-size="26" font-weight="bold">35+</text>
  <text x="280" y="2062" fill="#666688" font-size="11">CLI commands</text>

  <text x="440" y="2040" fill="#7b2ff7" font-size="26" font-weight="bold">30+</text>
  <text x="440" y="2062" fill="#666688" font-size="11">MCP tools</text>

  <text x="600" y="2040" fill="#f77f00" font-size="26" font-weight="bold">20+</text>
  <text x="600" y="2062" fill="#666688" font-size="11">enterprise features</text>

  <text x="780" y="2040" fill="#00b4d8" font-size="26" font-weight="bold">5</text>
  <text x="780" y="2062" fill="#666688" font-size="11">workspace tables</text>

  <text x="920" y="2040" fill="#ddaa33" font-size="26" font-weight="bold">0</text>
  <text x="920" y="2062" fill="#666688" font-size="11">cloud dependencies</text>

  <text x="700" y="2110" text-anchor="middle" fill="#333355" font-size="12">NeuroPack v4  --  Enterprise AI Memory Layer  --  Local, Private, Zero Cloud Dependencies</text>

</svg>
